# xmcd
#
# Track frame offsets:
#	150
#	12390
#	23855
#	39770
#	50865
#	63440
#	78535
#	91427
#	107275
#	121930
#	140075
#	155945
#	167780
#	182180
#
# Disc length: 2662 seconds
#
# Revision: 2
# Processed by: cddbd v1.4PL0 Copyright (c) Steve Scherf et al.
# Submitted via: audiograbber 1.82.00
#
DISCID=be0a640e
DTITLE=Various Artist - Hot Hits Country Vol. 9
DYEAR=1993
DGENRE=Country
TTITLE0=John Anderson - I Fell In The water
TTITLE1=Kelly Willis - Heaven's Just A Sin Away
TTITLE2=Lorrie Morgan - Half Enough
TTITLE3=George Jones - High Tech Redneck
TTITLE4=Faith Hill - Wild One
TTITLE5=Suzy Bogguss - Just Like The Weather
TTITLE6=Clay Walker - Live Until I Die
TTITLE7=Little Texas - God Blessed Texas
TTITLE8=Conway Twitty - Don't It Make You Lonely
TTITLE9=Radney Foster - Hanmner and Nails
TTITLE10=Dwight Yoakum - Fast As You
TTITLE11=Martina McBride - My Baby Loves Me
TTITLE12=Shawn Camp - Confessing My Love
TTITLE13=Trisha Yearwood - The Song Remembers When
EXTD=
EXTT0=
EXTT1=
EXTT2=
EXTT3=
EXTT4=
EXTT5=
EXTT6=
EXTT7=
EXTT8=
EXTT9=
EXTT10=
EXTT11=
EXTT12=
EXTT13=
PLAYORDER=
